# xmcd CD database file
#
# Track frame offsets:
#	150
#	17062
#	32973
#	49839
#
# Disc length: 873 seconds
#
# Revision: 0
# Processed by: cddbd v1.5.1PL2 Copyright (c) Steve Scherf et al.
# Submitted via: CDex 1.51
#
DISCID=2d036704
DTITLE=河辺千恵子 - 桜キッス
DYEAR=2006
DGENRE=Anime
TTITLE0=桜キッス
TTITLE1=シマウマノヨル
TTITLE2=桜キッス (off vocal)
TTITLE3=(off vocal)
EXTD=YEAR: 2006
EXTT0=
EXTT1=
EXTT2=
EXTT3=
PLAYORDER=
